<svg width="17" height="17" viewBox="0 0 17 17" fill="none" xmlns="http://www.w3.org/2000/svg">
<path d="M7.65985 2.01548C7.19357 3.1303 6.62617 4.48729 6.39865 5.03215C6.17254 5.57553 5.98153 6.02589 5.98153 6.02589C5.98153 6.02589 5.54896 6.0628 5.0237 6.10267C4.49984 6.14254 3.54342 6.21489 2.89878 6.26362C2.25413 6.31382 1.37214 6.38027 0.939574 6.41276C0.507005 6.44524 0.117973 6.47625 0.0758401 6.48068L0 6.48954L0.0688178 6.55894C0.108142 6.59585 0.540712 7.00191 1.02946 7.46113C1.51961 7.92035 2.16144 8.52132 2.45638 8.79744C4.23581 10.466 4.64731 10.8514 4.66416 10.8647C4.68804 10.8839 4.76809 10.528 3.90295 14.2091C3.54342 15.7389 3.2527 16.9999 3.2527 16.9999C3.2527 16.9999 4.47316 16.2631 5.96047 15.3505C7.44637 14.438 8.67245 13.6938 8.68509 13.6968C8.69633 13.6997 9.24406 14.0541 9.89994 14.4823C10.5572 14.912 11.5361 15.5513 12.0768 15.9043C12.6175 16.2572 13.2158 16.6485 13.4068 16.7725C13.5964 16.898 13.7622 16.9999 13.7622 16.9999C13.7622 16.9999 13.7678 16.9748 13.7622 16.9438C13.7537 16.8936 13.1849 14.1427 12.6723 11.6753C12.5501 11.0817 12.449 10.5856 12.449 10.5723C12.449 10.5531 13.3605 9.74098 16.6581 6.81882C17.0205 6.4984 17.0247 6.49397 16.9811 6.48363C16.9559 6.47773 15.5613 6.33007 13.8815 6.15435C12.2018 5.97864 10.8142 5.8295 10.7974 5.82212C10.7763 5.81326 10.7103 5.65822 10.5179 5.16356C10.3803 4.80623 9.93926 3.66778 9.53899 2.6327C9.13873 1.59761 8.74689 0.583193 8.66824 0.380901C8.58959 0.177132 8.52218 0.00732422 8.51656 -5.91278e-05C8.51234 -0.00596619 8.12612 0.90066 7.65985 2.01548Z" fill="#CDBC1E"/>
</svg>
